<svg width="538" height="351" viewBox="0 0 538 351" fill="none" xmlns="http://www.w3.org/2000/svg">
<rect width="538" height="351" fill="white"/>
<rect x="257.569" y="48" width="80" height="80" transform="rotate(45 257.569 48)" fill="#E0E0E0"/>
<path d="M257.293 41.7071C257.683 42.0976 258.317 42.0976 258.707 41.7071L265.071 35.3431C265.462 34.9526 265.462 34.3195 265.071 33.9289C264.681 33.5384 264.047 33.5384 263.657 33.9289L258 39.5858L252.343 33.9289C251.953 33.5384 251.319 33.5384 250.929 33.9289C250.538 34.3195 250.538 34.9526 250.929 35.3431L257.293 41.7071ZM257 8L257 41L259 41L259 8L257 8Z" fill="#D55E00"/>
<path d="M257.293 207.707C257.683 208.098 258.317 208.098 258.707 207.707L265.071 201.343C265.462 200.953 265.462 200.319 265.071 199.929C264.681 199.538 264.047 199.538 263.657 199.929L258 205.586L252.343 199.929C251.953 199.538 251.319 199.538 250.929 199.929C250.538 200.319 250.538 200.953 250.929 201.343L257.293 207.707ZM257 174L257 207L259 207L259 174L257 174Z" fill="black"/>
<path d="M257.293 342.707C257.683 343.098 258.317 343.098 258.707 342.707L265.071 336.343C265.462 335.953 265.462 335.319 265.071 334.929C264.681 334.538 264.047 334.538 263.657 334.929L258 340.586L252.343 334.929C251.953 334.538 251.319 334.538 250.929 334.929C250.538 335.319 250.538 335.953 250.929 336.343L257.293 342.707ZM257 309L257 342L259 342L259 309L257 309Z" fill="#D55E00"/>
<rect x="189" y="223" width="139" height="70" fill="#6FCF97"/>
<line x1="328" y1="104" x2="452" y2="104" stroke="#D55E00" stroke-width="2"/>
<line x1="451" y1="320" x2="451" y2="105" stroke="#D55E00" stroke-width="2"/>
<line x1="452" y1="321" x2="259" y2="321" stroke="#D55E00" stroke-width="2"/>
<path d="M268.33 190H267.275L268.377 183.66H269.432L268.33 190ZM269.203 181.346C269.383 181.338 269.531 181.393 269.648 181.51C269.77 181.623 269.83 181.773 269.83 181.961C269.826 182.145 269.766 182.295 269.648 182.412C269.535 182.529 269.387 182.592 269.203 182.6C269.02 182.607 268.869 182.555 268.752 182.441C268.635 182.328 268.578 182.18 268.582 181.996C268.586 181.812 268.645 181.66 268.758 181.539C268.871 181.418 269.02 181.354 269.203 181.346ZM270.58 190L271.541 184.498H270.562L270.709 183.66H271.682L271.787 182.91C271.889 182.273 272.135 181.775 272.525 181.416C272.936 181.041 273.459 180.857 274.096 180.865C274.295 180.865 274.547 180.898 274.852 180.965L274.723 181.85C274.535 181.811 274.346 181.787 274.154 181.779C273.787 181.779 273.488 181.895 273.258 182.125C273.031 182.352 272.891 182.654 272.836 183.033L272.742 183.66H274.055L273.908 184.498H272.596L271.641 190H270.58ZM279.785 189.238C280.164 189.246 280.506 189.137 280.811 188.91C281.115 188.68 281.314 188.379 281.408 188.008L282.41 188.002C282.352 188.4 282.191 188.764 281.93 189.092C281.672 189.42 281.346 189.676 280.951 189.859C280.557 190.043 280.152 190.129 279.738 190.117C279.211 190.109 278.764 189.973 278.396 189.707C278.033 189.438 277.766 189.064 277.594 188.588C277.422 188.107 277.363 187.568 277.418 186.971L277.447 186.678C277.521 186.068 277.699 185.523 277.98 185.043C278.262 184.562 278.629 184.189 279.082 183.924C279.535 183.654 280.035 183.527 280.582 183.543C281.246 183.559 281.777 183.781 282.176 184.211C282.574 184.641 282.773 185.186 282.773 185.846L281.783 185.84C281.775 185.426 281.66 185.092 281.438 184.838C281.215 184.58 280.914 184.443 280.535 184.428C279.984 184.416 279.525 184.621 279.158 185.043C278.795 185.465 278.568 186.055 278.479 186.812L278.461 186.965C278.438 187.215 278.434 187.473 278.449 187.738C278.477 188.195 278.605 188.557 278.836 188.822C279.066 189.088 279.383 189.227 279.785 189.238ZM286.781 183.543C287.312 183.551 287.768 183.695 288.146 183.977C288.525 184.258 288.805 184.646 288.984 185.143C289.168 185.635 289.23 186.174 289.172 186.76L289.16 186.889C289.086 187.506 288.902 188.064 288.609 188.564C288.316 189.061 287.938 189.447 287.473 189.725C287.008 190.002 286.498 190.133 285.943 190.117C285.416 190.109 284.961 189.965 284.578 189.684C284.199 189.402 283.922 189.02 283.746 188.535C283.57 188.051 283.508 187.518 283.559 186.936C283.617 186.279 283.795 185.689 284.092 185.166C284.389 184.643 284.77 184.238 285.234 183.953C285.703 183.664 286.219 183.527 286.781 183.543ZM284.625 186.941C284.598 187.188 284.598 187.443 284.625 187.709C284.664 188.17 284.801 188.537 285.035 188.811C285.273 189.084 285.59 189.227 285.984 189.238C286.336 189.25 286.66 189.164 286.957 188.98C287.254 188.793 287.504 188.512 287.707 188.137C287.91 187.762 288.041 187.346 288.1 186.889C288.131 186.529 288.137 186.227 288.117 185.98C288.07 185.508 287.928 185.135 287.689 184.861C287.451 184.588 287.135 184.443 286.74 184.428C286.193 184.416 285.729 184.631 285.346 185.072C284.963 185.514 284.727 186.092 284.637 186.807L284.625 186.941ZM292.066 183.654L291.914 184.457C292.484 183.832 293.133 183.527 293.859 183.543C294.457 183.559 294.898 183.766 295.184 184.164C295.469 184.562 295.574 185.123 295.5 185.846L294.809 190H293.748L294.445 185.828C294.469 185.637 294.471 185.459 294.451 185.295C294.385 184.748 294.062 184.469 293.484 184.457C292.848 184.445 292.289 184.785 291.809 185.477L291.023 190H289.963L291.064 183.66L292.066 183.654ZM296.748 186.818C296.826 186.174 297.004 185.592 297.281 185.072C297.559 184.553 297.9 184.164 298.307 183.906C298.713 183.648 299.16 183.525 299.648 183.537C300.355 183.553 300.898 183.811 301.277 184.311L301.887 181H302.947L301.389 190H300.422L300.533 189.32C300.033 189.867 299.416 190.133 298.682 190.117C298.096 190.102 297.629 189.873 297.281 189.432C296.934 188.986 296.746 188.391 296.719 187.645C296.707 187.414 296.717 187.139 296.748 186.818ZM297.768 187.428C297.756 187.986 297.855 188.42 298.066 188.729C298.277 189.037 298.586 189.195 298.992 189.203C299.605 189.23 300.15 188.922 300.627 188.277L301.131 185.348C300.896 184.77 300.471 184.473 299.854 184.457C299.436 184.445 299.066 184.572 298.746 184.838C298.43 185.1 298.188 185.469 298.02 185.945C297.855 186.418 297.771 186.912 297.768 187.428ZM304.213 190H303.158L304.26 183.66H305.314L304.213 190ZM305.086 181.346C305.266 181.338 305.414 181.393 305.531 181.51C305.652 181.623 305.713 181.773 305.713 181.961C305.709 182.145 305.648 182.295 305.531 182.412C305.418 182.529 305.27 182.592 305.086 182.6C304.902 182.607 304.752 182.555 304.635 182.441C304.518 182.328 304.461 182.18 304.465 181.996C304.469 181.812 304.527 181.66 304.641 181.539C304.754 181.418 304.902 181.354 305.086 181.346ZM308.748 182.125L308.479 183.66H309.633L309.486 184.498H308.338L307.676 188.441C307.664 188.543 307.662 188.637 307.67 188.723C307.697 189.027 307.863 189.18 308.168 189.18C308.297 189.18 308.469 189.16 308.684 189.121L308.602 190.006C308.348 190.076 308.09 190.111 307.828 190.111C307.406 190.104 307.09 189.949 306.879 189.648C306.668 189.344 306.586 188.936 306.633 188.424L307.277 184.498H306.158L306.305 183.66H307.424L307.693 182.125H308.748ZM310.963 190H309.908L311.01 183.66H312.064L310.963 190ZM311.836 181.346C312.016 181.338 312.164 181.393 312.281 181.51C312.402 181.623 312.463 181.773 312.463 181.961C312.459 182.145 312.398 182.295 312.281 182.412C312.168 182.529 312.02 182.592 311.836 182.6C311.652 182.607 311.502 182.555 311.385 182.441C311.268 182.328 311.211 182.18 311.215 181.996C311.219 181.812 311.277 181.66 311.391 181.539C311.504 181.418 311.652 181.354 311.836 181.346ZM316.219 183.543C316.75 183.551 317.205 183.695 317.584 183.977C317.963 184.258 318.242 184.646 318.422 185.143C318.605 185.635 318.668 186.174 318.609 186.76L318.598 186.889C318.523 187.506 318.34 188.064 318.047 188.564C317.754 189.061 317.375 189.447 316.91 189.725C316.445 190.002 315.936 190.133 315.381 190.117C314.854 190.109 314.398 189.965 314.016 189.684C313.637 189.402 313.359 189.02 313.184 188.535C313.008 188.051 312.945 187.518 312.996 186.936C313.055 186.279 313.232 185.689 313.529 185.166C313.826 184.643 314.207 184.238 314.672 183.953C315.141 183.664 315.656 183.527 316.219 183.543ZM314.062 186.941C314.035 187.188 314.035 187.443 314.062 187.709C314.102 188.17 314.238 188.537 314.473 188.811C314.711 189.084 315.027 189.227 315.422 189.238C315.773 189.25 316.098 189.164 316.395 188.98C316.691 188.793 316.941 188.512 317.145 188.137C317.348 187.762 317.479 187.346 317.537 186.889C317.568 186.529 317.574 186.227 317.555 185.98C317.508 185.508 317.365 185.135 317.127 184.861C316.889 184.588 316.572 184.443 316.178 184.428C315.631 184.416 315.166 184.631 314.783 185.072C314.4 185.514 314.164 186.092 314.074 186.807L314.062 186.941ZM321.504 183.654L321.352 184.457C321.922 183.832 322.57 183.527 323.297 183.543C323.895 183.559 324.336 183.766 324.621 184.164C324.906 184.562 325.012 185.123 324.938 185.846L324.246 190H323.186L323.883 185.828C323.906 185.637 323.908 185.459 323.889 185.295C323.822 184.748 323.5 184.469 322.922 184.457C322.285 184.445 321.727 184.785 321.246 185.477L320.461 190H319.4L320.502 183.66L321.504 183.654ZM329.971 190H328.916L330.018 183.66H331.072L329.971 190ZM330.844 181.346C331.023 181.338 331.172 181.393 331.289 181.51C331.41 181.623 331.471 181.773 331.471 181.961C331.467 182.145 331.406 182.295 331.289 182.412C331.176 182.529 331.027 182.592 330.844 182.6C330.66 182.607 330.51 182.555 330.393 182.441C330.275 182.328 330.219 182.18 330.223 181.996C330.227 181.812 330.285 181.66 330.398 181.539C330.512 181.418 330.66 181.354 330.844 181.346ZM335.631 188.283C335.689 187.846 335.449 187.537 334.91 187.357L333.809 187.035C332.879 186.715 332.43 186.184 332.461 185.441C332.488 184.883 332.742 184.426 333.223 184.07C333.707 183.711 334.275 183.535 334.928 183.543C335.568 183.551 336.088 183.738 336.486 184.105C336.889 184.469 337.082 184.943 337.066 185.529L336.012 185.523C336.02 185.207 335.92 184.949 335.713 184.75C335.506 184.551 335.23 184.447 334.887 184.439C334.52 184.432 334.203 184.521 333.938 184.709C333.691 184.885 333.549 185.115 333.51 185.4C333.459 185.768 333.684 186.035 334.184 186.203L334.717 186.35C335.443 186.537 335.959 186.781 336.264 187.082C336.568 187.383 336.709 187.756 336.686 188.201C336.662 188.596 336.533 188.939 336.299 189.232C336.064 189.525 335.752 189.75 335.361 189.906C334.971 190.059 334.555 190.129 334.113 190.117C333.441 190.109 332.887 189.914 332.449 189.531C332.012 189.145 331.801 188.648 331.816 188.043L332.877 188.049C332.877 188.404 332.99 188.689 333.217 188.904C333.443 189.119 333.754 189.227 334.148 189.227C334.535 189.234 334.869 189.154 335.15 188.986C335.432 188.814 335.592 188.58 335.631 188.283ZM342.797 183.654L342.662 184.363C343.193 183.801 343.836 183.527 344.59 183.543C344.992 183.551 345.332 183.643 345.609 183.818C345.891 183.994 346.084 184.242 346.189 184.562C346.783 183.867 347.484 183.527 348.293 183.543C348.926 183.559 349.393 183.771 349.693 184.182C349.994 184.592 350.105 185.143 350.027 185.834L349.33 190H348.275L348.967 185.822C348.99 185.619 348.99 185.434 348.967 185.266C348.893 184.734 348.545 184.463 347.924 184.451C347.537 184.443 347.186 184.564 346.869 184.814C346.557 185.061 346.355 185.385 346.266 185.787L345.545 190H344.479L345.182 185.828C345.232 185.395 345.166 185.061 344.982 184.826C344.803 184.592 344.521 184.471 344.139 184.463C343.479 184.447 342.953 184.748 342.562 185.365L341.76 190H340.699L341.801 183.66L342.797 183.654ZM353.713 190.117C352.924 190.102 352.307 189.811 351.861 189.244C351.416 188.678 351.229 187.953 351.299 187.07L351.328 186.818C351.395 186.189 351.58 185.615 351.885 185.096C352.193 184.576 352.568 184.186 353.01 183.924C353.451 183.658 353.928 183.531 354.439 183.543C355.092 183.559 355.604 183.775 355.975 184.193C356.346 184.611 356.549 185.178 356.584 185.893C356.596 186.146 356.588 186.4 356.561 186.654L356.496 187.141H352.354C352.283 187.715 352.377 188.203 352.635 188.605C352.896 189.008 353.285 189.217 353.801 189.232C354.426 189.248 355.004 188.967 355.535 188.389L356.145 188.904C355.879 189.287 355.535 189.588 355.113 189.807C354.695 190.021 354.229 190.125 353.713 190.117ZM354.387 184.428C353.949 184.416 353.566 184.564 353.238 184.873C352.914 185.182 352.656 185.641 352.465 186.25L355.547 186.256L355.57 186.162C355.633 185.67 355.553 185.262 355.33 184.938C355.111 184.609 354.797 184.439 354.387 184.428ZM359.994 182.125L359.725 183.66H360.879L360.732 184.498H359.584L358.922 188.441C358.91 188.543 358.908 188.637 358.916 188.723C358.943 189.027 359.109 189.18 359.414 189.18C359.543 189.18 359.715 189.16 359.93 189.121L359.848 190.006C359.594 190.076 359.336 190.111 359.074 190.111C358.652 190.104 358.336 189.949 358.125 189.648C357.914 189.344 357.832 188.936 357.879 188.424L358.523 184.498H357.404L357.551 183.66H358.67L358.939 182.125H359.994Z" fill="black"/>
<path d="M339.33 96H338.275L339.377 89.6602H340.432L339.33 96ZM340.203 87.3457C340.383 87.3379 340.531 87.3926 340.648 87.5098C340.77 87.623 340.83 87.7734 340.83 87.9609C340.826 88.1445 340.766 88.2949 340.648 88.4121C340.535 88.5293 340.387 88.5918 340.203 88.5996C340.02 88.6074 339.869 88.5547 339.752 88.4414C339.635 88.3281 339.578 88.1797 339.582 87.9961C339.586 87.8125 339.645 87.6602 339.758 87.5391C339.871 87.418 340.02 87.3535 340.203 87.3457ZM341.58 96L342.541 90.498H341.562L341.709 89.6602H342.682L342.787 88.9102C342.889 88.2734 343.135 87.7754 343.525 87.416C343.936 87.041 344.459 86.8574 345.096 86.8652C345.295 86.8652 345.547 86.8984 345.852 86.9648L345.723 87.8496C345.535 87.8105 345.346 87.7871 345.154 87.7793C344.787 87.7793 344.488 87.8945 344.258 88.125C344.031 88.3516 343.891 88.6543 343.836 89.0332L343.742 89.6602H345.055L344.908 90.498H343.596L342.641 96H341.58ZM350.785 95.2383C351.164 95.2461 351.506 95.1367 351.811 94.9102C352.115 94.6797 352.314 94.3789 352.408 94.0078L353.41 94.002C353.352 94.4004 353.191 94.7637 352.93 95.0918C352.672 95.4199 352.346 95.6758 351.951 95.8594C351.557 96.043 351.152 96.1289 350.738 96.1172C350.211 96.1094 349.764 95.9727 349.396 95.707C349.033 95.4375 348.766 95.0645 348.594 94.5879C348.422 94.1074 348.363 93.5684 348.418 92.9707L348.447 92.6777C348.521 92.0684 348.699 91.5234 348.98 91.043C349.262 90.5625 349.629 90.1895 350.082 89.9238C350.535 89.6543 351.035 89.5273 351.582 89.543C352.246 89.5586 352.777 89.7812 353.176 90.2109C353.574 90.6406 353.773 91.1855 353.773 91.8457L352.783 91.8398C352.775 91.4258 352.66 91.0918 352.438 90.8379C352.215 90.5801 351.914 90.4434 351.535 90.4277C350.984 90.416 350.525 90.6211 350.158 91.043C349.795 91.4648 349.568 92.0547 349.479 92.8125L349.461 92.9648C349.438 93.2148 349.434 93.4727 349.449 93.7383C349.477 94.1953 349.605 94.5566 349.836 94.8223C350.066 95.0879 350.383 95.2266 350.785 95.2383ZM357.781 89.543C358.312 89.5508 358.768 89.6953 359.146 89.9766C359.525 90.2578 359.805 90.6465 359.984 91.1426C360.168 91.6348 360.23 92.1738 360.172 92.7598L360.16 92.8887C360.086 93.5059 359.902 94.0645 359.609 94.5645C359.316 95.0605 358.938 95.4473 358.473 95.7246C358.008 96.002 357.498 96.1328 356.943 96.1172C356.416 96.1094 355.961 95.9648 355.578 95.6836C355.199 95.4023 354.922 95.0195 354.746 94.5352C354.57 94.0508 354.508 93.5176 354.559 92.9355C354.617 92.2793 354.795 91.6895 355.092 91.166C355.389 90.6426 355.77 90.2383 356.234 89.9531C356.703 89.6641 357.219 89.5273 357.781 89.543ZM355.625 92.9414C355.598 93.1875 355.598 93.4434 355.625 93.709C355.664 94.1699 355.801 94.5371 356.035 94.8105C356.273 95.084 356.59 95.2266 356.984 95.2383C357.336 95.25 357.66 95.1641 357.957 94.9805C358.254 94.793 358.504 94.5117 358.707 94.1367C358.91 93.7617 359.041 93.3457 359.1 92.8887C359.131 92.5293 359.137 92.2266 359.117 91.9805C359.07 91.5078 358.928 91.1348 358.689 90.8613C358.451 90.5879 358.135 90.4434 357.74 90.4277C357.193 90.416 356.729 90.6309 356.346 91.0723C355.963 91.5137 355.727 92.0918 355.637 92.8066L355.625 92.9414ZM363.066 89.6543L362.914 90.457C363.484 89.832 364.133 89.5273 364.859 89.543C365.457 89.5586 365.898 89.7656 366.184 90.1641C366.469 90.5625 366.574 91.123 366.5 91.8457L365.809 96H364.748L365.445 91.8281C365.469 91.6367 365.471 91.459 365.451 91.2949C365.385 90.748 365.062 90.4688 364.484 90.457C363.848 90.4453 363.289 90.7852 362.809 91.4766L362.023 96H360.963L362.064 89.6602L363.066 89.6543ZM367.748 92.8184C367.826 92.1738 368.004 91.5918 368.281 91.0723C368.559 90.5527 368.9 90.1641 369.307 89.9062C369.713 89.6484 370.16 89.5254 370.648 89.5371C371.355 89.5527 371.898 89.8105 372.277 90.3105L372.887 87H373.947L372.389 96H371.422L371.533 95.3203C371.033 95.8672 370.416 96.1328 369.682 96.1172C369.096 96.1016 368.629 95.873 368.281 95.4316C367.934 94.9863 367.746 94.3906 367.719 93.6445C367.707 93.4141 367.717 93.1387 367.748 92.8184ZM368.768 93.4277C368.756 93.9863 368.855 94.4199 369.066 94.7285C369.277 95.0371 369.586 95.1953 369.992 95.2031C370.605 95.2305 371.15 94.9219 371.627 94.2773L372.131 91.3477C371.896 90.7695 371.471 90.4727 370.854 90.457C370.436 90.4453 370.066 90.5723 369.746 90.8379C369.43 91.0996 369.188 91.4688 369.02 91.9453C368.855 92.418 368.771 92.9121 368.768 93.4277ZM375.213 96H374.158L375.26 89.6602H376.314L375.213 96ZM376.086 87.3457C376.266 87.3379 376.414 87.3926 376.531 87.5098C376.652 87.623 376.713 87.7734 376.713 87.9609C376.709 88.1445 376.648 88.2949 376.531 88.4121C376.418 88.5293 376.27 88.5918 376.086 88.5996C375.902 88.6074 375.752 88.5547 375.635 88.4414C375.518 88.3281 375.461 88.1797 375.465 87.9961C375.469 87.8125 375.527 87.6602 375.641 87.5391C375.754 87.418 375.902 87.3535 376.086 87.3457ZM379.748 88.125L379.479 89.6602H380.633L380.486 90.498H379.338L378.676 94.4414C378.664 94.543 378.662 94.6367 378.67 94.7227C378.697 95.0273 378.863 95.1797 379.168 95.1797C379.297 95.1797 379.469 95.1602 379.684 95.1211L379.602 96.0059C379.348 96.0762 379.09 96.1113 378.828 96.1113C378.406 96.1035 378.09 95.9492 377.879 95.6484C377.668 95.3438 377.586 94.9355 377.633 94.4238L378.277 90.498H377.158L377.305 89.6602H378.424L378.693 88.125H379.748ZM381.963 96H380.908L382.01 89.6602H383.064L381.963 96ZM382.836 87.3457C383.016 87.3379 383.164 87.3926 383.281 87.5098C383.402 87.623 383.463 87.7734 383.463 87.9609C383.459 88.1445 383.398 88.2949 383.281 88.4121C383.168 88.5293 383.02 88.5918 382.836 88.5996C382.652 88.6074 382.502 88.5547 382.385 88.4414C382.268 88.3281 382.211 88.1797 382.215 87.9961C382.219 87.8125 382.277 87.6602 382.391 87.5391C382.504 87.418 382.652 87.3535 382.836 87.3457ZM387.219 89.543C387.75 89.5508 388.205 89.6953 388.584 89.9766C388.963 90.2578 389.242 90.6465 389.422 91.1426C389.605 91.6348 389.668 92.1738 389.609 92.7598L389.598 92.8887C389.523 93.5059 389.34 94.0645 389.047 94.5645C388.754 95.0605 388.375 95.4473 387.91 95.7246C387.445 96.002 386.936 96.1328 386.381 96.1172C385.854 96.1094 385.398 95.9648 385.016 95.6836C384.637 95.4023 384.359 95.0195 384.184 94.5352C384.008 94.0508 383.945 93.5176 383.996 92.9355C384.055 92.2793 384.232 91.6895 384.529 91.166C384.826 90.6426 385.207 90.2383 385.672 89.9531C386.141 89.6641 386.656 89.5273 387.219 89.543ZM385.062 92.9414C385.035 93.1875 385.035 93.4434 385.062 93.709C385.102 94.1699 385.238 94.5371 385.473 94.8105C385.711 95.084 386.027 95.2266 386.422 95.2383C386.773 95.25 387.098 95.1641 387.395 94.9805C387.691 94.793 387.941 94.5117 388.145 94.1367C388.348 93.7617 388.479 93.3457 388.537 92.8887C388.568 92.5293 388.574 92.2266 388.555 91.9805C388.508 91.5078 388.365 91.1348 388.127 90.8613C387.889 90.5879 387.572 90.4434 387.178 90.4277C386.631 90.416 386.166 90.6309 385.783 91.0723C385.4 91.5137 385.164 92.0918 385.074 92.8066L385.062 92.9414ZM392.504 89.6543L392.352 90.457C392.922 89.832 393.57 89.5273 394.297 89.543C394.895 89.5586 395.336 89.7656 395.621 90.1641C395.906 90.5625 396.012 91.123 395.938 91.8457L395.246 96H394.186L394.883 91.8281C394.906 91.6367 394.908 91.459 394.889 91.2949C394.822 90.748 394.5 90.4688 393.922 90.457C393.285 90.4453 392.727 90.7852 392.246 91.4766L391.461 96H390.4L391.502 89.6602L392.504 89.6543ZM400.971 96H399.916L401.018 89.6602H402.072L400.971 96ZM401.844 87.3457C402.023 87.3379 402.172 87.3926 402.289 87.5098C402.41 87.623 402.471 87.7734 402.471 87.9609C402.467 88.1445 402.406 88.2949 402.289 88.4121C402.176 88.5293 402.027 88.5918 401.844 88.5996C401.66 88.6074 401.51 88.5547 401.393 88.4414C401.275 88.3281 401.219 88.1797 401.223 87.9961C401.227 87.8125 401.285 87.6602 401.398 87.5391C401.512 87.418 401.66 87.3535 401.844 87.3457ZM406.631 94.2832C406.689 93.8457 406.449 93.5371 405.91 93.3574L404.809 93.0352C403.879 92.7148 403.43 92.1836 403.461 91.4414C403.488 90.8828 403.742 90.4258 404.223 90.0703C404.707 89.7109 405.275 89.5352 405.928 89.543C406.568 89.5508 407.088 89.7383 407.486 90.1055C407.889 90.4688 408.082 90.9434 408.066 91.5293L407.012 91.5234C407.02 91.207 406.92 90.9492 406.713 90.75C406.506 90.5508 406.23 90.4473 405.887 90.4395C405.52 90.4316 405.203 90.5215 404.938 90.709C404.691 90.8848 404.549 91.1152 404.51 91.4004C404.459 91.7676 404.684 92.0352 405.184 92.2031L405.717 92.3496C406.443 92.5371 406.959 92.7812 407.264 93.082C407.568 93.3828 407.709 93.7559 407.686 94.2012C407.662 94.5957 407.533 94.9395 407.299 95.2324C407.064 95.5254 406.752 95.75 406.361 95.9062C405.971 96.0586 405.555 96.1289 405.113 96.1172C404.441 96.1094 403.887 95.9141 403.449 95.5312C403.012 95.1445 402.801 94.6484 402.816 94.043L403.877 94.0488C403.877 94.4043 403.99 94.6895 404.217 94.9043C404.443 95.1191 404.754 95.2266 405.148 95.2266C405.535 95.2344 405.869 95.1543 406.15 94.9863C406.432 94.8145 406.592 94.5801 406.631 94.2832ZM410.867 89.6543L410.715 90.457C411.285 89.832 411.934 89.5273 412.66 89.543C413.258 89.5586 413.699 89.7656 413.984 90.1641C414.27 90.5625 414.375 91.123 414.301 91.8457L413.609 96H412.549L413.246 91.8281C413.27 91.6367 413.271 91.459 413.252 91.2949C413.186 90.748 412.863 90.4688 412.285 90.457C411.648 90.4453 411.09 90.7852 410.609 91.4766L409.824 96H408.764L409.865 89.6602L410.867 89.6543ZM415.982 89.8711L415.396 89.4375C415.857 88.8633 416.135 88.3066 416.229 87.7676L416.363 87H417.406L417.295 87.709C417.154 88.5879 416.717 89.3086 415.982 89.8711ZM419.967 88.125L419.697 89.6602H420.852L420.705 90.498H419.557L418.895 94.4414C418.883 94.543 418.881 94.6367 418.889 94.7227C418.916 95.0273 419.082 95.1797 419.387 95.1797C419.516 95.1797 419.688 95.1602 419.902 95.1211L419.82 96.0059C419.566 96.0762 419.309 96.1113 419.047 96.1113C418.625 96.1035 418.309 95.9492 418.098 95.6484C417.887 95.3438 417.805 94.9355 417.852 94.4238L418.496 90.498H417.377L417.523 89.6602H418.643L418.912 88.125H419.967ZM426.066 89.6543L425.932 90.3633C426.463 89.8008 427.105 89.5273 427.859 89.543C428.262 89.5508 428.602 89.6426 428.879 89.8184C429.16 89.9941 429.354 90.2422 429.459 90.5625C430.053 89.8672 430.754 89.5273 431.562 89.543C432.195 89.5586 432.662 89.7715 432.963 90.1816C433.264 90.5918 433.375 91.1426 433.297 91.834L432.6 96H431.545L432.236 91.8223C432.26 91.6191 432.26 91.4336 432.236 91.2656C432.162 90.7344 431.814 90.4629 431.193 90.4512C430.807 90.4434 430.455 90.5645 430.139 90.8145C429.826 91.0605 429.625 91.3848 429.535 91.7871L428.814 96H427.748L428.451 91.8281C428.502 91.3945 428.436 91.0605 428.252 90.8262C428.072 90.5918 427.791 90.4707 427.408 90.4629C426.748 90.4473 426.223 90.748 425.832 91.3652L425.029 96H423.969L425.07 89.6602L426.066 89.6543ZM436.982 96.1172C436.193 96.1016 435.576 95.8105 435.131 95.2441C434.686 94.6777 434.498 93.9531 434.568 93.0703L434.598 92.8184C434.664 92.1895 434.85 91.6152 435.154 91.0957C435.463 90.5762 435.838 90.1855 436.279 89.9238C436.721 89.6582 437.197 89.5312 437.709 89.543C438.361 89.5586 438.873 89.7754 439.244 90.1934C439.615 90.6113 439.818 91.1777 439.854 91.8926C439.865 92.1465 439.857 92.4004 439.83 92.6543L439.766 93.1406H435.623C435.553 93.7148 435.646 94.2031 435.904 94.6055C436.166 95.0078 436.555 95.2168 437.07 95.2324C437.695 95.248 438.273 94.9668 438.805 94.3887L439.414 94.9043C439.148 95.2871 438.805 95.5879 438.383 95.8066C437.965 96.0215 437.498 96.125 436.982 96.1172ZM437.656 90.4277C437.219 90.416 436.836 90.5645 436.508 90.873C436.184 91.1816 435.926 91.6406 435.734 92.25L438.816 92.2559L438.84 92.1621C438.902 91.6699 438.822 91.2617 438.6 90.9375C438.381 90.6094 438.066 90.4395 437.656 90.4277ZM443.264 88.125L442.994 89.6602H444.148L444.002 90.498H442.854L442.191 94.4414C442.18 94.543 442.178 94.6367 442.186 94.7227C442.213 95.0273 442.379 95.1797 442.684 95.1797C442.812 95.1797 442.984 95.1602 443.199 95.1211L443.117 96.0059C442.863 96.0762 442.605 96.1113 442.344 96.1113C441.922 96.1035 441.605 95.9492 441.395 95.6484C441.184 95.3438 441.102 94.9355 441.148 94.4238L441.793 90.498H440.674L440.82 89.6602H441.939L442.209 88.125H443.264Z" fill="black"/>
<path d="M222.008 102.108H225.944V108H224.564V103.2H222.008V102.108ZM225.152 101.076C224.872 101.076 224.636 100.992 224.444 100.824C224.26 100.656 224.168 100.432 224.168 100.152C224.168 99.872 224.26 99.648 224.444 99.48C224.636 99.304 224.872 99.216 225.152 99.216C225.44 99.216 225.676 99.304 225.86 99.48C226.044 99.648 226.136 99.872 226.136 100.152C226.136 100.432 226.044 100.656 225.86 100.824C225.676 100.992 225.44 101.076 225.152 101.076ZM234.891 100.728C234.675 100.64 234.463 100.576 234.255 100.536C234.055 100.496 233.835 100.476 233.595 100.476C233.139 100.476 232.807 100.588 232.599 100.812C232.399 101.028 232.299 101.344 232.299 101.76V102.108H234.543V103.2H232.299V108H230.931V103.2H229.299V102.168L230.931 102.108V101.784C230.931 101.44 230.979 101.12 231.075 100.824C231.171 100.528 231.319 100.276 231.519 100.068C231.727 99.852 231.987 99.684 232.299 99.564C232.619 99.444 232.995 99.384 233.427 99.384C233.747 99.384 234.051 99.412 234.339 99.468C234.635 99.524 234.915 99.604 235.179 99.708L234.891 100.728ZM241.432 99.1406H240.312V108.938H241.432V109.828H239.223V98.25H241.432V99.1406ZM244.918 107.232C245.305 107.232 245.643 107.115 245.932 106.881C246.221 106.646 246.381 106.354 246.412 106.002H247.438C247.418 106.365 247.293 106.711 247.062 107.039C246.832 107.367 246.523 107.629 246.137 107.824C245.754 108.02 245.348 108.117 244.918 108.117C244.055 108.117 243.367 107.83 242.855 107.256C242.348 106.678 242.094 105.889 242.094 104.889V104.707C242.094 104.09 242.207 103.541 242.434 103.061C242.66 102.58 242.984 102.207 243.406 101.941C243.832 101.676 244.334 101.543 244.912 101.543C245.623 101.543 246.213 101.756 246.682 102.182C247.154 102.607 247.406 103.16 247.438 103.84H246.412C246.381 103.43 246.225 103.094 245.943 102.832C245.666 102.566 245.322 102.434 244.912 102.434C244.361 102.434 243.934 102.633 243.629 103.031C243.328 103.426 243.178 103.998 243.178 104.748V104.953C243.178 105.684 243.328 106.246 243.629 106.641C243.93 107.035 244.359 107.232 244.918 107.232ZM248.369 104.771C248.369 104.15 248.49 103.592 248.732 103.096C248.979 102.6 249.318 102.217 249.752 101.947C250.189 101.678 250.688 101.543 251.246 101.543C252.109 101.543 252.807 101.842 253.338 102.439C253.873 103.037 254.141 103.832 254.141 104.824V104.9C254.141 105.518 254.021 106.072 253.783 106.564C253.549 107.053 253.211 107.434 252.77 107.707C252.332 107.98 251.828 108.117 251.258 108.117C250.398 108.117 249.701 107.818 249.166 107.221C248.635 106.623 248.369 105.832 248.369 104.848V104.771ZM249.459 104.9C249.459 105.604 249.621 106.168 249.945 106.594C250.273 107.02 250.711 107.232 251.258 107.232C251.809 107.232 252.246 107.018 252.57 106.588C252.895 106.154 253.057 105.549 253.057 104.771C253.057 104.076 252.891 103.514 252.559 103.084C252.23 102.65 251.793 102.434 251.246 102.434C250.711 102.434 250.279 102.646 249.951 103.072C249.623 103.498 249.459 104.107 249.459 104.9ZM256.525 101.66L256.561 102.457C257.045 101.848 257.678 101.543 258.459 101.543C259.799 101.543 260.475 102.299 260.486 103.811V108H259.402V103.805C259.398 103.348 259.293 103.01 259.086 102.791C258.883 102.572 258.564 102.463 258.131 102.463C257.779 102.463 257.471 102.557 257.205 102.744C256.939 102.932 256.732 103.178 256.584 103.482V108H255.5V101.66H256.525ZM261.857 104.777C261.857 103.805 262.088 103.023 262.549 102.434C263.01 101.84 263.613 101.543 264.359 101.543C265.102 101.543 265.689 101.797 266.123 102.305V99H267.207V108H266.211L266.158 107.32C265.725 107.852 265.121 108.117 264.348 108.117C263.613 108.117 263.014 107.816 262.549 107.215C262.088 106.613 261.857 105.828 261.857 104.859V104.777ZM262.941 104.9C262.941 105.619 263.09 106.182 263.387 106.588C263.684 106.994 264.094 107.197 264.617 107.197C265.305 107.197 265.807 106.889 266.123 106.271V103.359C265.799 102.762 265.301 102.463 264.629 102.463C264.098 102.463 263.684 102.668 263.387 103.078C263.09 103.488 262.941 104.096 262.941 104.9ZM270.072 108H268.988V101.66H270.072V108ZM268.9 99.9785C268.9 99.8027 268.953 99.6543 269.059 99.5332C269.168 99.4121 269.328 99.3516 269.539 99.3516C269.75 99.3516 269.91 99.4121 270.02 99.5332C270.129 99.6543 270.184 99.8027 270.184 99.9785C270.184 100.154 270.129 100.301 270.02 100.418C269.91 100.535 269.75 100.594 269.539 100.594C269.328 100.594 269.168 100.535 269.059 100.418C268.953 100.301 268.9 100.154 268.9 99.9785ZM273.283 100.125V101.66H274.467V102.498H273.283V106.43C273.283 106.684 273.336 106.875 273.441 107.004C273.547 107.129 273.727 107.191 273.98 107.191C274.105 107.191 274.277 107.168 274.496 107.121V108C274.211 108.078 273.934 108.117 273.664 108.117C273.18 108.117 272.814 107.971 272.568 107.678C272.322 107.385 272.199 106.969 272.199 106.43V102.498H271.045V101.66H272.199V100.125H273.283ZM276.916 108H275.832V101.66H276.916V108ZM275.744 99.9785C275.744 99.8027 275.797 99.6543 275.902 99.5332C276.012 99.4121 276.172 99.3516 276.383 99.3516C276.594 99.3516 276.754 99.4121 276.863 99.5332C276.973 99.6543 277.027 99.8027 277.027 99.9785C277.027 100.154 276.973 100.301 276.863 100.418C276.754 100.535 276.594 100.594 276.383 100.594C276.172 100.594 276.012 100.535 275.902 100.418C275.797 100.301 275.744 100.154 275.744 99.9785ZM278.369 104.771C278.369 104.15 278.49 103.592 278.732 103.096C278.979 102.6 279.318 102.217 279.752 101.947C280.189 101.678 280.688 101.543 281.246 101.543C282.109 101.543 282.807 101.842 283.338 102.439C283.873 103.037 284.141 103.832 284.141 104.824V104.9C284.141 105.518 284.021 106.072 283.783 106.564C283.549 107.053 283.211 107.434 282.77 107.707C282.332 107.98 281.828 108.117 281.258 108.117C280.398 108.117 279.701 107.818 279.166 107.221C278.635 106.623 278.369 105.832 278.369 104.848V104.771ZM279.459 104.9C279.459 105.604 279.621 106.168 279.945 106.594C280.273 107.02 280.711 107.232 281.258 107.232C281.809 107.232 282.246 107.018 282.57 106.588C282.895 106.154 283.057 105.549 283.057 104.771C283.057 104.076 282.891 103.514 282.559 103.084C282.23 102.65 281.793 102.434 281.246 102.434C280.711 102.434 280.279 102.646 279.951 103.072C279.623 103.498 279.459 104.107 279.459 104.9ZM286.525 101.66L286.561 102.457C287.045 101.848 287.678 101.543 288.459 101.543C289.799 101.543 290.475 102.299 290.486 103.811V108H289.402V103.805C289.398 103.348 289.293 103.01 289.086 102.791C288.883 102.572 288.564 102.463 288.131 102.463C287.779 102.463 287.471 102.557 287.205 102.744C286.939 102.932 286.732 103.178 286.584 103.482V108H285.5V101.66H286.525ZM291.354 98.25H293.568V109.828H291.354V108.938H292.484V99.1406H291.354V98.25Z" fill="black"/>
<path d="M224.85 246.141H223.73V255.938H224.85V256.828H222.641V245.25H224.85V246.141ZM228.336 254.232C228.723 254.232 229.061 254.115 229.35 253.881C229.639 253.646 229.799 253.354 229.83 253.002H230.855C230.836 253.365 230.711 253.711 230.48 254.039C230.25 254.367 229.941 254.629 229.555 254.824C229.172 255.02 228.766 255.117 228.336 255.117C227.473 255.117 226.785 254.83 226.273 254.256C225.766 253.678 225.512 252.889 225.512 251.889V251.707C225.512 251.09 225.625 250.541 225.852 250.061C226.078 249.58 226.402 249.207 226.824 248.941C227.25 248.676 227.752 248.543 228.33 248.543C229.041 248.543 229.631 248.756 230.1 249.182C230.572 249.607 230.824 250.16 230.855 250.84H229.83C229.799 250.43 229.643 250.094 229.361 249.832C229.084 249.566 228.74 249.434 228.33 249.434C227.779 249.434 227.352 249.633 227.047 250.031C226.746 250.426 226.596 250.998 226.596 251.748V251.953C226.596 252.684 226.746 253.246 227.047 253.641C227.348 254.035 227.777 254.232 228.336 254.232ZM231.787 251.771C231.787 251.15 231.908 250.592 232.15 250.096C232.396 249.6 232.736 249.217 233.17 248.947C233.607 248.678 234.105 248.543 234.664 248.543C235.527 248.543 236.225 248.842 236.756 249.439C237.291 250.037 237.559 250.832 237.559 251.824V251.9C237.559 252.518 237.439 253.072 237.201 253.564C236.967 254.053 236.629 254.434 236.188 254.707C235.75 254.98 235.246 255.117 234.676 255.117C233.816 255.117 233.119 254.818 232.584 254.221C232.053 253.623 231.787 252.832 231.787 251.848V251.771ZM232.877 251.9C232.877 252.604 233.039 253.168 233.363 253.594C233.691 254.02 234.129 254.232 234.676 254.232C235.227 254.232 235.664 254.018 235.988 253.588C236.312 253.154 236.475 252.549 236.475 251.771C236.475 251.076 236.309 250.514 235.977 250.084C235.648 249.65 235.211 249.434 234.664 249.434C234.129 249.434 233.697 249.646 233.369 250.072C233.041 250.498 232.877 251.107 232.877 251.9ZM238.654 251.777C238.654 250.805 238.885 250.023 239.346 249.434C239.807 248.84 240.41 248.543 241.156 248.543C241.898 248.543 242.486 248.797 242.92 249.305V246H244.004V255H243.008L242.955 254.32C242.521 254.852 241.918 255.117 241.145 255.117C240.41 255.117 239.811 254.816 239.346 254.215C238.885 253.613 238.654 252.828 238.654 251.859V251.777ZM239.738 251.9C239.738 252.619 239.887 253.182 240.184 253.588C240.48 253.994 240.891 254.197 241.414 254.197C242.102 254.197 242.604 253.889 242.92 253.271V250.359C242.596 249.762 242.098 249.463 241.426 249.463C240.895 249.463 240.48 249.668 240.184 250.078C239.887 250.488 239.738 251.096 239.738 251.9ZM248.322 255.117C247.463 255.117 246.764 254.836 246.225 254.273C245.686 253.707 245.416 252.951 245.416 252.006V251.807C245.416 251.178 245.535 250.617 245.773 250.125C246.016 249.629 246.352 249.242 246.781 248.965C247.215 248.684 247.684 248.543 248.188 248.543C249.012 248.543 249.652 248.814 250.109 249.357C250.566 249.9 250.795 250.678 250.795 251.689V252.141H246.5C246.516 252.766 246.697 253.271 247.045 253.658C247.396 254.041 247.842 254.232 248.381 254.232C248.764 254.232 249.088 254.154 249.354 253.998C249.619 253.842 249.852 253.635 250.051 253.377L250.713 253.893C250.182 254.709 249.385 255.117 248.322 255.117ZM248.188 249.434C247.75 249.434 247.383 249.594 247.086 249.914C246.789 250.23 246.605 250.676 246.535 251.25H249.711V251.168C249.68 250.617 249.531 250.191 249.266 249.891C249 249.586 248.641 249.434 248.188 249.434ZM256.502 247.125V248.66H257.686V249.498H256.502V253.43C256.502 253.684 256.555 253.875 256.66 254.004C256.766 254.129 256.945 254.191 257.199 254.191C257.324 254.191 257.496 254.168 257.715 254.121V255C257.43 255.078 257.152 255.117 256.883 255.117C256.398 255.117 256.033 254.971 255.787 254.678C255.541 254.385 255.418 253.969 255.418 253.43V249.498H254.264V248.66H255.418V247.125H256.502ZM258.553 251.771C258.553 251.15 258.674 250.592 258.916 250.096C259.162 249.6 259.502 249.217 259.936 248.947C260.373 248.678 260.871 248.543 261.43 248.543C262.293 248.543 262.99 248.842 263.521 249.439C264.057 250.037 264.324 250.832 264.324 251.824V251.9C264.324 252.518 264.205 253.072 263.967 253.564C263.732 254.053 263.395 254.434 262.953 254.707C262.516 254.98 262.012 255.117 261.441 255.117C260.582 255.117 259.885 254.818 259.35 254.221C258.818 253.623 258.553 252.832 258.553 251.848V251.771ZM259.643 251.9C259.643 252.604 259.805 253.168 260.129 253.594C260.457 254.02 260.895 254.232 261.441 254.232C261.992 254.232 262.43 254.018 262.754 253.588C263.078 253.154 263.24 252.549 263.24 251.771C263.24 251.076 263.074 250.514 262.742 250.084C262.414 249.65 261.977 249.434 261.43 249.434C260.895 249.434 260.463 249.646 260.135 250.072C259.807 250.498 259.643 251.107 259.643 251.9ZM271.725 249.633C271.561 249.605 271.383 249.592 271.191 249.592C270.48 249.592 269.998 249.895 269.744 250.5V255H268.66V248.66H269.715L269.732 249.393C270.088 248.826 270.592 248.543 271.244 248.543C271.455 248.543 271.615 248.57 271.725 248.625V249.633ZM276.641 254.373C276.219 254.869 275.6 255.117 274.783 255.117C274.107 255.117 273.592 254.922 273.236 254.531C272.885 254.137 272.707 253.555 272.703 252.785V248.66H273.787V252.756C273.787 253.717 274.178 254.197 274.959 254.197C275.787 254.197 276.338 253.889 276.611 253.271V248.66H277.695V255H276.664L276.641 254.373ZM280.373 248.66L280.408 249.457C280.893 248.848 281.525 248.543 282.307 248.543C283.646 248.543 284.322 249.299 284.334 250.811V255H283.25V250.805C283.246 250.348 283.141 250.01 282.934 249.791C282.73 249.572 282.412 249.463 281.979 249.463C281.627 249.463 281.318 249.557 281.053 249.744C280.787 249.932 280.58 250.178 280.432 250.482V255H279.348V248.66H280.373ZM290.123 255H289.039V248.66H290.123V255ZM288.951 246.979C288.951 246.803 289.004 246.654 289.109 246.533C289.219 246.412 289.379 246.352 289.59 246.352C289.801 246.352 289.961 246.412 290.07 246.533C290.18 246.654 290.234 246.803 290.234 246.979C290.234 247.154 290.18 247.301 290.07 247.418C289.961 247.535 289.801 247.594 289.59 247.594C289.379 247.594 289.219 247.535 289.109 247.418C289.004 247.301 288.951 247.154 288.951 246.979ZM292.396 255V249.498H291.395V248.66H292.396V248.01C292.396 247.33 292.578 246.805 292.941 246.434C293.305 246.062 293.818 245.877 294.482 245.877C294.732 245.877 294.98 245.91 295.227 245.977L295.168 246.855C294.984 246.82 294.789 246.803 294.582 246.803C294.23 246.803 293.959 246.906 293.768 247.113C293.576 247.316 293.48 247.609 293.48 247.992V248.66H294.834V249.498H293.48V255H292.396ZM217.461 268.232C217.848 268.232 218.186 268.115 218.475 267.881C218.764 267.646 218.924 267.354 218.955 267.002H219.98C219.961 267.365 219.836 267.711 219.605 268.039C219.375 268.367 219.066 268.629 218.68 268.824C218.297 269.02 217.891 269.117 217.461 269.117C216.598 269.117 215.91 268.83 215.398 268.256C214.891 267.678 214.637 266.889 214.637 265.889V265.707C214.637 265.09 214.75 264.541 214.977 264.061C215.203 263.58 215.527 263.207 215.949 262.941C216.375 262.676 216.877 262.543 217.455 262.543C218.166 262.543 218.756 262.756 219.225 263.182C219.697 263.607 219.949 264.16 219.98 264.84H218.955C218.924 264.43 218.768 264.094 218.486 263.832C218.209 263.566 217.865 263.434 217.455 263.434C216.904 263.434 216.477 263.633 216.172 264.031C215.871 264.426 215.721 264.998 215.721 265.748V265.953C215.721 266.684 215.871 267.246 216.172 267.641C216.473 268.035 216.902 268.232 217.461 268.232ZM220.912 265.771C220.912 265.15 221.033 264.592 221.275 264.096C221.521 263.6 221.861 263.217 222.295 262.947C222.732 262.678 223.23 262.543 223.789 262.543C224.652 262.543 225.35 262.842 225.881 263.439C226.416 264.037 226.684 264.832 226.684 265.824V265.9C226.684 266.518 226.564 267.072 226.326 267.564C226.092 268.053 225.754 268.434 225.312 268.707C224.875 268.98 224.371 269.117 223.801 269.117C222.941 269.117 222.244 268.818 221.709 268.221C221.178 267.623 220.912 266.832 220.912 265.848V265.771ZM222.002 265.9C222.002 266.604 222.164 267.168 222.488 267.594C222.816 268.02 223.254 268.232 223.801 268.232C224.352 268.232 224.789 268.018 225.113 267.588C225.438 267.154 225.6 266.549 225.6 265.771C225.6 265.076 225.434 264.514 225.102 264.084C224.773 263.65 224.336 263.434 223.789 263.434C223.254 263.434 222.822 263.646 222.494 264.072C222.166 264.498 222.002 265.107 222.002 265.9ZM229.068 262.66L229.104 263.457C229.588 262.848 230.221 262.543 231.002 262.543C232.342 262.543 233.018 263.299 233.029 264.811V269H231.945V264.805C231.941 264.348 231.836 264.01 231.629 263.791C231.426 263.572 231.107 263.463 230.674 263.463C230.322 263.463 230.014 263.557 229.748 263.744C229.482 263.932 229.275 264.178 229.127 264.482V269H228.043V262.66H229.068ZM234.4 265.777C234.4 264.805 234.631 264.023 235.092 263.434C235.553 262.84 236.156 262.543 236.902 262.543C237.645 262.543 238.232 262.797 238.666 263.305V260H239.75V269H238.754L238.701 268.32C238.268 268.852 237.664 269.117 236.891 269.117C236.156 269.117 235.557 268.816 235.092 268.215C234.631 267.613 234.4 266.828 234.4 265.859V265.777ZM235.484 265.9C235.484 266.619 235.633 267.182 235.93 267.588C236.227 267.994 236.637 268.197 237.16 268.197C237.848 268.197 238.35 267.889 238.666 267.271V264.359C238.342 263.762 237.844 263.463 237.172 263.463C236.641 263.463 236.227 263.668 235.93 264.078C235.633 264.488 235.484 265.096 235.484 265.9ZM242.615 269H241.531V262.66H242.615V269ZM241.443 260.979C241.443 260.803 241.496 260.654 241.602 260.533C241.711 260.412 241.871 260.352 242.082 260.352C242.293 260.352 242.453 260.412 242.562 260.533C242.672 260.654 242.727 260.803 242.727 260.979C242.727 261.154 242.672 261.301 242.562 261.418C242.453 261.535 242.293 261.594 242.082 261.594C241.871 261.594 241.711 261.535 241.602 261.418C241.496 261.301 241.443 261.154 241.443 260.979ZM245.826 261.125V262.66H247.01V263.498H245.826V267.43C245.826 267.684 245.879 267.875 245.984 268.004C246.09 268.129 246.27 268.191 246.523 268.191C246.648 268.191 246.82 268.168 247.039 268.121V269C246.754 269.078 246.477 269.117 246.207 269.117C245.723 269.117 245.357 268.971 245.111 268.678C244.865 268.385 244.742 267.969 244.742 267.43V263.498H243.588V262.66H244.742V261.125H245.826ZM249.459 269H248.375V262.66H249.459V269ZM248.287 260.979C248.287 260.803 248.34 260.654 248.445 260.533C248.555 260.412 248.715 260.352 248.926 260.352C249.137 260.352 249.297 260.412 249.406 260.533C249.516 260.654 249.57 260.803 249.57 260.979C249.57 261.154 249.516 261.301 249.406 261.418C249.297 261.535 249.137 261.594 248.926 261.594C248.715 261.594 248.555 261.535 248.445 261.418C248.34 261.301 248.287 261.154 248.287 260.979ZM250.912 265.771C250.912 265.15 251.033 264.592 251.275 264.096C251.521 263.6 251.861 263.217 252.295 262.947C252.732 262.678 253.23 262.543 253.789 262.543C254.652 262.543 255.35 262.842 255.881 263.439C256.416 264.037 256.684 264.832 256.684 265.824V265.9C256.684 266.518 256.564 267.072 256.326 267.564C256.092 268.053 255.754 268.434 255.312 268.707C254.875 268.98 254.371 269.117 253.801 269.117C252.941 269.117 252.244 268.818 251.709 268.221C251.178 267.623 250.912 266.832 250.912 265.848V265.771ZM252.002 265.9C252.002 266.604 252.164 267.168 252.488 267.594C252.816 268.02 253.254 268.232 253.801 268.232C254.352 268.232 254.789 268.018 255.113 267.588C255.438 267.154 255.6 266.549 255.6 265.771C255.6 265.076 255.434 264.514 255.102 264.084C254.773 263.65 254.336 263.434 253.789 263.434C253.254 263.434 252.822 263.646 252.494 264.072C252.166 264.498 252.002 265.107 252.002 265.9ZM259.068 262.66L259.104 263.457C259.588 262.848 260.221 262.543 261.002 262.543C262.342 262.543 263.018 263.299 263.029 264.811V269H261.945V264.805C261.941 264.348 261.836 264.01 261.629 263.791C261.426 263.572 261.107 263.463 260.674 263.463C260.322 263.463 260.014 263.557 259.748 263.744C259.482 263.932 259.275 264.178 259.127 264.482V269H258.043V262.66H259.068ZM268.818 269H267.734V262.66H268.818V269ZM267.646 260.979C267.646 260.803 267.699 260.654 267.805 260.533C267.914 260.412 268.074 260.352 268.285 260.352C268.496 260.352 268.656 260.412 268.766 260.533C268.875 260.654 268.93 260.803 268.93 260.979C268.93 261.154 268.875 261.301 268.766 261.418C268.656 261.535 268.496 261.594 268.285 261.594C268.074 261.594 267.914 261.535 267.805 261.418C267.699 261.301 267.646 261.154 267.646 260.979ZM274.25 267.318C274.25 267.025 274.139 266.799 273.916 266.639C273.697 266.475 273.312 266.334 272.762 266.217C272.215 266.1 271.779 265.959 271.455 265.795C271.135 265.631 270.896 265.436 270.74 265.209C270.588 264.982 270.512 264.713 270.512 264.4C270.512 263.881 270.73 263.441 271.168 263.082C271.609 262.723 272.172 262.543 272.855 262.543C273.574 262.543 274.156 262.729 274.602 263.1C275.051 263.471 275.275 263.945 275.275 264.523H274.186C274.186 264.227 274.059 263.971 273.805 263.756C273.555 263.541 273.238 263.434 272.855 263.434C272.461 263.434 272.152 263.52 271.93 263.691C271.707 263.863 271.596 264.088 271.596 264.365C271.596 264.627 271.699 264.824 271.906 264.957C272.113 265.09 272.486 265.217 273.025 265.338C273.568 265.459 274.008 265.604 274.344 265.771C274.68 265.939 274.928 266.143 275.088 266.381C275.252 266.615 275.334 266.902 275.334 267.242C275.334 267.809 275.107 268.264 274.654 268.607C274.201 268.947 273.613 269.117 272.891 269.117C272.383 269.117 271.934 269.027 271.543 268.848C271.152 268.668 270.846 268.418 270.623 268.098C270.404 267.773 270.295 267.424 270.295 267.049H271.379C271.398 267.412 271.543 267.701 271.812 267.916C272.086 268.127 272.445 268.232 272.891 268.232C273.301 268.232 273.629 268.15 273.875 267.986C274.125 267.818 274.25 267.596 274.25 267.318ZM280.742 262.66L280.771 263.363C281.236 262.816 281.863 262.543 282.652 262.543C283.539 262.543 284.143 262.883 284.463 263.562C284.674 263.258 284.947 263.012 285.283 262.824C285.623 262.637 286.023 262.543 286.484 262.543C287.875 262.543 288.582 263.279 288.605 264.752V269H287.521V264.816C287.521 264.363 287.418 264.025 287.211 263.803C287.004 263.576 286.656 263.463 286.168 263.463C285.766 263.463 285.432 263.584 285.166 263.826C284.9 264.064 284.746 264.387 284.703 264.793V269H283.613V264.846C283.613 263.924 283.162 263.463 282.26 263.463C281.549 263.463 281.062 263.766 280.801 264.371V269H279.717V262.66H280.742ZM292.877 269.117C292.018 269.117 291.318 268.836 290.779 268.273C290.24 267.707 289.971 266.951 289.971 266.006V265.807C289.971 265.178 290.09 264.617 290.328 264.125C290.57 263.629 290.906 263.242 291.336 262.965C291.77 262.684 292.238 262.543 292.742 262.543C293.566 262.543 294.207 262.814 294.664 263.357C295.121 263.9 295.35 264.678 295.35 265.689V266.141H291.055C291.07 266.766 291.252 267.271 291.6 267.658C291.951 268.041 292.396 268.232 292.936 268.232C293.318 268.232 293.643 268.154 293.908 267.998C294.174 267.842 294.406 267.635 294.605 267.377L295.268 267.893C294.736 268.709 293.939 269.117 292.877 269.117ZM292.742 263.434C292.305 263.434 291.938 263.594 291.641 263.914C291.344 264.23 291.16 264.676 291.09 265.25H294.266V265.168C294.234 264.617 294.086 264.191 293.82 263.891C293.555 263.586 293.195 263.434 292.742 263.434ZM298.08 261.125V262.66H299.264V263.498H298.08V267.43C298.08 267.684 298.133 267.875 298.238 268.004C298.344 268.129 298.523 268.191 298.777 268.191C298.902 268.191 299.074 268.168 299.293 268.121V269C299.008 269.078 298.73 269.117 298.461 269.117C297.977 269.117 297.611 268.971 297.365 268.678C297.119 268.385 296.996 267.969 296.996 267.43V263.498H295.842V262.66H296.996V261.125H298.08ZM299.768 259.25H301.982V270.828H299.768V269.938H300.898V260.141H299.768V259.25Z" fill="black"/>
<line x1="258" y1="309" x2="258" y2="320" stroke="black" stroke-width="2"/>
</svg>
